<?xml version="1.0" standalone="no"?><!-- Generator: Gravit.io --><svg xmlns="http://www.w3.org/2000/svg" xmlns:xlink="http://www.w3.org/1999/xlink" style="isolation:isolate" viewBox="0 0 1930 335" width="1930" height="335"><defs><clipPath id="_clipPath_6f6uGWwCLJKCRjJpCkOxlxnOYEZCJjVJ"><rect width="1930" height="335"/></clipPath></defs><g clip-path="url(#_clipPath_6f6uGWwCLJKCRjJpCkOxlxnOYEZCJjVJ)"><path d=" M 522.078 238.816 L 522.383 238.816 L 594.505 58.172 L 627.972 58.172 L 627.972 276.424 L 606.065 276.424 L 606.065 86.838 L 605.46 86.838 L 527.557 276.424 L 515.991 276.424 L 438.093 86.838 L 437.483 86.838 L 437.483 276.424 L 415.576 276.424 L 415.576 58.172 L 449.046 58.172 L 522.078 238.816 Z " fill="rgb(255,255,255)"/><path d=" M 708.369 256.699 L 823.698 256.699 L 823.698 276.425 L 686.459 276.425 L 686.459 58.17 L 820.045 58.17 L 820.045 77.899 L 708.369 77.899 L 708.369 152.809 L 812.746 152.809 L 812.746 172.537 L 708.369 172.537 L 708.369 256.699 Z " fill="rgb(255,255,255)"/><clipPath id="_clipPath_88QWXZvJOHH7yqpqWo1CN5YDrQdzl2aE"><path d=" M 66.33 -608 L 2300.03 -608 L 2300.03 992 L 66.33 992 L 66.33 -608 Z " fill="rgb(255,255,255)"/></clipPath><g clip-path="url(#_clipPath_88QWXZvJOHH7yqpqWo1CN5YDrQdzl2aE)"><path d=" M 885.56 256.699 L 929.076 256.699 C 945.305 256.699 959.457 254.129 971.527 248.99 C 983.593 243.854 993.585 237.123 1001.497 228.799 C 1009.412 220.475 1015.347 210.971 1019.303 200.281 C 1023.253 189.6 1025.235 178.601 1025.235 167.299 C 1025.235 155.997 1023.253 145.001 1019.303 134.311 C 1015.347 123.63 1009.412 114.123 1001.497 105.796 C 993.585 97.474 983.593 90.744 971.527 85.608 C 959.457 80.471 945.305 77.899 929.076 77.899 L 885.56 77.899 L 885.56 256.699 Z  M 863.653 58.17 L 935.165 58.17 C 948.55 58.17 961.991 60.431 975.485 64.952 C 988.974 69.473 1001.144 76.31 1011.996 85.449 C 1022.85 94.598 1031.624 106.003 1038.321 119.673 C 1045.018 133.341 1048.358 149.215 1048.358 167.299 C 1048.358 185.59 1045.018 201.518 1038.321 215.08 C 1031.624 228.643 1022.85 240.002 1011.996 249.141 C 1001.144 258.293 988.974 265.125 975.485 269.643 C 961.991 274.164 948.55 276.425 935.165 276.425 L 863.653 276.425 L 863.653 58.17 Z " fill="rgb(255,255,255)"/><path d=" M 1116.699 276.425 L 1094.791 276.425 L 1094.791 58.17 L 1116.699 58.17 L 1116.699 276.425 Z " fill="rgb(255,255,255)"/><path d=" M 1312.94 276.8 C 1298.841 280.288 1283.471 282.041 1266.838 282.041 C 1249.593 282.041 1233.721 279.264 1219.214 273.719 C 1204.709 268.166 1192.233 260.361 1181.788 250.29 C 1171.337 240.224 1163.17 228.145 1157.291 214.066 C 1151.403 199.992 1148.469 184.319 1148.469 167.056 C 1148.469 149.587 1151.459 133.761 1157.444 119.578 C 1163.422 105.399 1171.692 93.331 1182.244 83.357 C 1192.79 73.393 1205.165 65.741 1219.365 60.394 C 1233.567 55.054 1248.882 52.377 1265.315 52.377 C 1282.357 52.377 1298.183 54.997 1312.786 60.241 C 1327.395 65.477 1339.26 72.522 1348.392 81.357 L 1315.527 119.271 C 1310.454 113.315 1303.758 108.434 1295.445 104.628 C 1287.125 100.83 1277.687 98.927 1267.141 98.927 C 1258.017 98.927 1249.593 100.626 1241.885 104.013 C 1234.175 107.405 1227.481 112.135 1221.803 118.194 C 1216.123 124.257 1211.708 131.45 1208.564 139.774 C 1205.42 148.096 1203.849 157.191 1203.849 167.056 C 1203.849 177.127 1205.266 186.373 1208.107 194.799 C 1210.949 203.226 1215.157 210.472 1220.736 216.533 C 1226.314 222.597 1233.212 227.322 1241.431 230.714 C 1249.648 234.103 1259.027 235.8 1269.577 235.8 C 1275.663 235.8 1281.447 235.337 1286.923 234.41 C 1292.399 233.488 1297.47 231.996 1302.139 229.94 L 1302.139 190.176 L 1261.054 190.176 L 1261.054 147.636 L 1349.913 147.636 L 1349.913 263.237 C 1339.361 268.785 1327.034 273.308 1312.94 276.8 Z " fill="rgb(249,171,72)"/><path d=" M 1484.108 116.499 L 1456.721 191.408 L 1510.886 191.408 L 1484.108 116.499 Z  M 1541.926 276.489 L 1525.19 233.642 L 1441.81 233.642 L 1425.989 276.489 L 1369.389 276.489 L 1459.765 58.237 L 1510.279 58.237 L 1599.742 276.489 L 1541.926 276.489 Z " fill="rgb(249,171,72)"/><path d=" M 1693.4 103.243 L 1693.4 276.49 L 1641.368 276.49 L 1641.368 103.243 L 1580.506 103.243 L 1580.506 58.235 L 1754.259 58.235 L 1754.259 103.243 L 1693.4 103.243 Z " fill="rgb(249,171,72)"/><path d=" M 1779.457 276.49 L 1779.457 58.236 L 1924.301 58.236 L 1924.301 102.622 L 1829.661 102.622 L 1829.661 143.934 L 1919.13 143.934 L 1919.13 186.168 L 1829.661 186.168 L 1829.661 231.485 L 1929.777 231.485 L 1929.777 276.49 L 1779.457 276.49 Z " fill="rgb(249,171,72)"/></g><g id="layer101"><path d=" M 246.308 333.64 C 234.919 331.728 225.171 327.802 215.526 321.291 C 211.627 318.656 202.238 309.459 153.448 260.373 L 95.987 202.606 L 109.429 189.069 L 122.922 175.48 L 178.433 231.334 C 209.01 262.026 234.919 287.913 236.048 288.739 C 238.972 290.961 243.589 293.235 248.104 294.63 C 252.978 296.18 261.494 296.283 266.574 294.888 C 279.246 291.478 289.096 281.557 292.585 268.743 C 294.021 263.421 293.765 254.172 292.072 248.85 C 289.507 240.997 288.275 239.447 269.395 220.277 L 251.952 202.606 L 265.445 189.017 L 278.887 175.48 L 296.381 193.047 C 305.975 202.71 315.313 212.578 317.16 215.007 C 321.264 220.381 327.113 232.213 328.908 238.517 C 331.268 246.732 331.884 252.467 331.576 262.233 C 331.217 274.065 329.267 282.229 324.547 292.305 C 319.879 302.07 310.952 312.921 301.974 319.638 C 293.97 325.683 282.786 330.747 272.217 333.072 C 266.984 334.26 251.849 334.57 246.308 333.64 Z " fill="rgb(247,165,57)"/><path d=" M 34.371 140.499 C 15.85 121.692 13.285 118.643 8.872 110.634 C -2.722 89.45 -2.979 62.117 8.257 40.467 C 18.671 20.316 37.09 6.314 59.458 1.508 C 66.436 0.062 80.237 -0.093 87.522 1.25 C 93.73 2.438 101.63 5.074 107.12 7.864 C 117.74 13.237 115.842 11.481 177.971 73.897 L 235.791 132.077 L 222.349 145.615 L 208.856 159.204 L 152.165 102.161 L 95.474 45.117 L 90.6 42.741 C 83.571 39.33 80.442 38.659 72.644 38.917 C 65.051 39.227 60.946 40.467 54.995 44.187 C 37.911 54.935 33.088 78.496 44.477 95.495 C 45.35 96.839 53.712 105.674 62.947 115.026 L 79.826 132.077 L 66.333 145.666 L 52.84 159.204 L 34.371 140.499 Z " fill="rgb(247,165,57)"/></g><g id="layer102"><path d=" M 63.768 333.795 C 36.115 329.713 13.285 310.751 3.947 284.089 C 1.023 275.719 0.099 270.035 0.099 259.959 C 0.099 249.936 0.766 245.337 3.485 236.76 C 6.153 228.389 9.745 221.362 15.08 214.232 C 16.363 212.527 42.938 185.4 74.131 153.882 L 130.874 96.684 L 144.316 110.221 L 157.809 123.81 L 101.99 180.13 C 65.923 216.454 45.452 237.483 44.221 239.447 C 39.758 246.37 38.013 252.984 38.372 261.458 C 38.834 271.378 42.631 279.49 49.967 286.363 C 59.664 295.405 73.464 298.247 86.034 293.855 C 92.857 291.478 94.55 290.083 112.917 271.74 C 122.511 262.13 130.617 254.276 130.874 254.276 C 131.182 254.276 137.39 260.321 144.726 267.71 L 158.065 281.144 L 144.213 295.146 C 127.026 312.507 120.87 318.191 114.97 322.118 C 102.451 330.385 88.804 334.415 73.772 334.312 C 69.873 334.26 65.41 334.054 63.768 333.795 Z " fill="rgb(48,64,111)"/><path d=" M 187.565 224.049 L 173.969 210.357 L 229.994 153.882 C 270.627 112.908 286.531 96.58 288.07 94.152 C 294.791 83.56 295.458 70.022 289.814 58.758 C 283.504 46.151 271.704 38.814 257.647 38.814 C 249.746 38.814 244 40.519 237.484 44.807 C 235.842 45.892 227.018 54.263 217.681 63.563 L 200.853 80.356 L 187.411 66.819 L 173.969 53.23 L 192.182 35.042 C 204.085 23.158 211.832 15.821 214.602 13.857 C 222.914 7.915 233.175 3.523 244 1.25 C 250.054 -0.042 264.983 -0.042 271.345 1.25 C 301.255 7.347 323.983 29.875 330.499 59.998 C 331.884 66.199 331.884 83.146 330.55 89.45 C 327.728 102.729 322.239 113.89 313.414 124.172 C 311.362 126.549 285.3 153.055 255.441 183.127 L 201.161 237.742 L 187.565 224.049 Z " fill="rgb(48,64,111)"/></g><g id="layer102"><path d=" M 63.768 333.795 C 36.115 329.713 13.285 310.751 3.947 284.089 C 1.023 275.719 0.099 270.035 0.099 259.959 C 0.099 249.936 0.766 245.337 3.485 236.76 C 6.153 228.389 9.745 221.362 15.08 214.232 C 16.363 212.527 42.938 185.4 74.131 153.882 L 130.874 96.684 L 144.316 110.221 L 157.809 123.81 L 101.99 180.13 C 65.923 216.454 45.452 237.483 44.221 239.447 C 39.758 246.37 38.013 252.984 38.372 261.458 C 38.834 271.378 42.631 279.49 49.967 286.363 C 59.664 295.405 73.464 298.247 86.034 293.855 C 92.857 291.478 94.55 290.083 112.917 271.74 C 122.511 262.13 130.617 254.276 130.874 254.276 C 131.182 254.276 137.39 260.321 144.726 267.71 L 158.065 281.144 L 144.213 295.146 C 127.026 312.507 120.87 318.191 114.97 322.118 C 102.451 330.385 88.804 334.415 73.772 334.312 C 69.873 334.26 65.41 334.054 63.768 333.795 Z " fill="rgb(255,255,255)"/><path d=" M 187.565 224.049 L 173.969 210.357 L 229.994 153.882 C 270.627 112.908 286.531 96.58 288.07 94.152 C 294.791 83.56 295.458 70.022 289.814 58.758 C 283.504 46.151 271.704 38.814 257.647 38.814 C 249.746 38.814 244 40.519 237.484 44.807 C 235.842 45.892 227.018 54.263 217.681 63.563 L 200.853 80.356 L 187.411 66.819 L 173.969 53.23 L 192.182 35.042 C 204.085 23.158 211.832 15.821 214.602 13.857 C 222.914 7.915 233.175 3.523 244 1.25 C 250.054 -0.042 264.983 -0.042 271.345 1.25 C 301.255 7.347 323.983 29.875 330.499 59.998 C 331.884 66.199 331.884 83.146 330.55 89.45 C 327.728 102.729 322.239 113.89 313.414 124.172 C 311.362 126.549 285.3 153.055 255.441 183.127 L 201.161 237.742 L 187.565 224.049 Z " fill="rgb(255,255,255)"/></g></g></svg>