<!DOCTYPE svg PUBLIC "-//W3C//DTD SVG 20010904//EN" "http://www.w3.org/TR/2001/REC-SVG-20010904/DTD/svg10.dtd">
<svg version="1.0" xmlns="http://www.w3.org/2000/svg" width="800px" height="800px" viewBox="0 0 8000 8000" preserveAspectRatio="xMidYMid meet">
<g id="layer101" fill="#f7a539" stroke="none">
 <path d="M5595 7116 c-222 -37 -412 -113 -600 -239 -76 -51 -259 -229 -1210 -1179 l-1120 -1118 262 -262 263 -263 1082 1081 c596 594 1101 1095 1123 1111 57 43 147 87 235 114 95 30 261 32 360 5 247 -66 439 -258 507 -506 28 -103 23 -282 -10 -385 -50 -152 -74 -182 -442 -553 l-340 -342 263 -263 262 -262 341 340 c187 187 369 378 405 425 80 104 194 333 229 455 46 159 58 270 52 459 -7 229 -45 387 -137 582 -91 189 -265 399 -440 529 -156 117 -374 215 -580 260 -102 23 -397 29 -505 11z"/>
 <path d="M1464 3378 c-361 -364 -411 -423 -497 -578 -226 -410 -231 -939 -12 -1358 203 -390 562 -661 998 -754 136 -28 405 -31 547 -5 121 23 275 74 382 128 207 104 170 70 1381 1278 l1127 1126 -262 262 -263 263 -1105 -1104 -1105 -1104 -95 -46 c-137 -66 -198 -79 -350 -74 -148 6 -228 30 -344 102 -333 208 -427 664 -205 993 17 26 180 197 360 378 l329 330 -263 263 -263 262 -360 -362z"/>
 </g>
<g id="layer102" fill="#30406f" stroke="none">
 <path d="M2037 7119 c-539 -79 -984 -446 -1166 -962 -57 -162 -75 -272 -75 -467 0 -194 13 -283 66 -449 52 -162 122 -298 226 -436 25 -33 543 -558 1151 -1168 l1106 -1107 262 262 263 263 -1088 1090 c-703 703 -1102 1110 -1126 1148 -87 134 -121 262 -114 426 9 192 83 349 226 482 189 175 458 230 703 145 133 -46 166 -73 524 -428 187 -186 345 -338 350 -338 6 0 127 117 270 260 l260 260 -270 271 c-335 336 -455 446 -570 522 -244 160 -510 238 -803 236 -76 -1 -163 -5 -195 -10z"/>
 <path d="M4450 4995 l-265 -265 1092 -1093 c792 -793 1102 -1109 1132 -1156 131 -205 144 -467 34 -685 -123 -244 -353 -386 -627 -386 -154 0 -266 33 -393 116 -32 21 -204 183 -386 363 l-328 325 -262 -262 -262 -263 355 -352 c232 -230 383 -372 437 -410 162 -115 362 -200 573 -244 118 -25 409 -25 533 0 583 118 1026 554 1153 1137 27 120 27 448 1 570 -55 257 -162 473 -334 672 -40 46 -548 559 -1130 1141 l-1058 1057 -265 -265z"/>
 </g>

</svg>